<svg width="252" height="54" viewBox="0 0 252 54" fill="none" xmlns="http://www.w3.org/2000/svg">
<path d="M3.89355 53.9141C1.83691 53.9141 0.808594 53.3301 0.808594 52.1621V3.06934C0.808594 1.90137 1.83691 1.31738 3.89355 1.31738H27.4688C31.4805 1.31738 35.1494 2.57422 38.4756 5.08789C41.8271 7.57617 43.5029 10.9658 43.5029 15.2568C43.5029 18.9639 42.1699 22.0615 39.5039 24.5498C36.8379 27.0127 33.7656 28.498 30.2871 29.0059C31.8105 30.2754 33.0547 31.8115 34.0195 33.6143C35.0098 35.417 35.9365 37.3086 36.7998 39.2891C37.8408 41.5996 38.9834 43.8467 40.2275 46.0303C41.4717 48.1885 43.1348 49.8008 45.2168 50.8672C45.9023 51.2227 46.2451 51.6543 46.2451 52.1621C46.2451 52.5938 45.9785 52.9746 45.4453 53.3047C44.8359 53.6855 44.0742 53.876 43.1602 53.876C42.3223 53.876 41.6367 53.7363 41.1035 53.457C38.2852 52.0352 36.1523 50.1055 34.7051 47.668C33.2578 45.2051 31.9502 42.6787 30.7822 40.0889C29.5635 37.3467 28.2432 34.8457 26.8213 32.5859C25.3994 30.3262 23.3555 29.1963 20.6895 29.1963H7.0166V52.1621C7.0166 53.3301 5.97559 53.9141 3.89355 53.9141ZM27.4688 25.7305C34.0195 25.7305 37.2949 22.2393 37.2949 15.2568C37.2949 8.27441 34.0195 4.7832 27.4688 4.7832H7.0166V25.7305H27.4688ZM88.0254 2.15527C88.0254 0.987305 89.0664 0.40332 91.1484 0.40332C93.2051 0.40332 94.2334 0.987305 94.2334 2.15527V36.6611C94.2334 42.1201 91.9229 46.3604 87.3018 49.3818C82.7061 52.4033 77.9453 53.9141 73.0195 53.9141C68.1445 53.9141 63.4219 52.3906 58.8516 49.3438C54.2812 46.2969 51.9961 42.0693 51.9961 36.6611V2.15527C51.9961 0.987305 53.0244 0.40332 55.0811 0.40332C57.1631 0.40332 58.2041 0.987305 58.2041 2.15527V36.6611C58.2041 40.5713 59.7402 43.8467 62.8125 46.4873C65.8848 49.1279 69.2871 50.4482 73.0195 50.4482C76.8027 50.4736 80.2432 49.166 83.3408 46.5254C86.4639 43.8848 88.0254 40.5967 88.0254 36.6611V2.15527ZM142.146 53.9141C140.444 53.9141 139.289 53.5078 138.68 52.6953L106.383 8.62988V52.7334C106.383 53.5205 105.634 53.9141 104.136 53.9141C102.638 53.9141 101.889 53.5205 101.889 52.7334V2.53613C101.889 1.11426 103.158 0.40332 105.697 0.40332C107.424 0.40332 108.592 0.80957 109.201 1.62207L141.498 45.6875V1.62207C141.498 0.80957 142.247 0.40332 143.745 0.40332C145.243 0.40332 145.992 0.80957 145.992 1.62207V51.8574C145.992 53.2285 144.71 53.9141 142.146 53.9141ZM201.141 52.2383C201.141 53.3555 199.973 53.9141 197.637 53.9141C195.834 53.9141 194.742 53.4697 194.361 52.5811L187.239 36.2041H162.369L155.209 53.0381C154.93 53.6221 154.219 53.9141 153.076 53.9141C151.527 53.9141 150.753 53.5332 150.753 52.7715C150.753 52.7461 150.778 52.6318 150.829 52.4287L172.424 1.66016C172.754 0.822266 173.947 0.40332 176.004 0.40332C177.781 0.40332 178.873 0.847656 179.279 1.73633L200.912 51.5527C201.064 51.9082 201.141 52.1367 201.141 52.2383ZM185.754 32.7383L174.671 7.2207L163.816 32.7383H185.754ZM209.024 53.9141C206.968 53.9141 205.939 53.3301 205.939 52.1621V3.06934C205.939 1.90137 206.968 1.31738 209.024 1.31738H232.6C236.611 1.31738 240.28 2.57422 243.606 5.08789C246.958 7.57617 248.634 10.9658 248.634 15.2568C248.634 18.9639 247.301 22.0615 244.635 24.5498C241.969 27.0127 238.896 28.498 235.418 29.0059C236.941 30.2754 238.186 31.8115 239.15 33.6143C240.141 35.417 241.067 37.3086 241.931 39.2891C242.972 41.5996 244.114 43.8467 245.358 46.0303C246.603 48.1885 248.266 49.8008 250.348 50.8672C251.033 51.2227 251.376 51.6543 251.376 52.1621C251.376 52.5938 251.109 52.9746 250.576 53.3047C249.967 53.6855 249.205 53.876 248.291 53.876C247.453 53.876 246.768 53.7363 246.234 53.457C243.416 52.0352 241.283 50.1055 239.836 47.668C238.389 45.2051 237.081 42.6787 235.913 40.0889C234.694 37.3467 233.374 34.8457 231.952 32.5859C230.53 30.3262 228.486 29.1963 225.82 29.1963H212.147V52.1621C212.147 53.3301 211.106 53.9141 209.024 53.9141ZM232.6 25.7305C239.15 25.7305 242.426 22.2393 242.426 15.2568C242.426 8.27441 239.15 4.7832 232.6 4.7832H212.147V25.7305H232.6Z" fill="white"/>
</svg>
