<svg width="147" height="147" viewBox="0 0 147 147" fill="none" xmlns="http://www.w3.org/2000/svg">
<path fill-rule="evenodd" clip-rule="evenodd" d="M73.5 147C114.093 147 147 114.093 147 73.5C147 32.9071 114.093 0 73.5 0C32.9071 0 0 32.9071 0 73.5C0 114.093 32.9071 147 73.5 147ZM81.5 139C117.675 139 147 109.675 147 73.5C147 37.3253 117.675 8 81.5 8C45.3253 8 16 37.3253 16 73.5C16 109.675 45.3253 139 81.5 139Z" fill="white"/>
<path fill-rule="evenodd" clip-rule="evenodd" d="M83.5 133C50.6391 133 24 106.361 24 73.5C24 40.6391 50.6391 14 83.5 14C116.361 14 143 40.6391 143 73.5C143 106.361 116.361 133 83.5 133ZM77.0238 126.524C47.7396 126.524 24 102.784 24 73.5C24 44.2158 47.7396 20.4762 77.0238 20.4762C106.308 20.4762 130.048 44.2158 130.048 73.5C130.048 102.784 106.308 126.524 77.0238 126.524Z" fill="white"/>
<path d="M56.8379 111.172C54.2012 111.172 52.8828 110.423 52.8828 108.926V45.9863C52.8828 44.4889 54.2012 43.7402 56.8379 43.7402H87.0625C92.2057 43.7402 96.9095 45.3516 101.174 48.5742C105.471 51.7643 107.619 56.11 107.619 61.6113C107.619 66.3639 105.91 70.3353 102.492 73.5254C99.0742 76.6829 95.1354 78.5872 90.6758 79.2383C92.6289 80.8659 94.224 82.8353 95.4609 85.1465C96.7305 87.4577 97.9186 89.8828 99.0254 92.4219C100.36 95.3841 101.825 98.265 103.42 101.064C105.015 103.831 107.147 105.898 109.816 107.266C110.695 107.721 111.135 108.275 111.135 108.926C111.135 109.479 110.793 109.967 110.109 110.391C109.328 110.879 108.352 111.123 107.18 111.123C106.105 111.123 105.227 110.944 104.543 110.586C100.93 108.763 98.1953 106.289 96.3398 103.164C94.4844 100.007 92.8079 96.7676 91.3105 93.4473C89.748 89.9316 88.0553 86.7253 86.2324 83.8281C84.4095 80.931 81.7891 79.4824 78.3711 79.4824H60.8418V108.926C60.8418 110.423 59.5072 111.172 56.8379 111.172ZM87.0625 75.0391C95.4609 75.0391 99.6602 70.5632 99.6602 61.6113C99.6602 52.6595 95.4609 48.1836 87.0625 48.1836H60.8418V75.0391H87.0625Z" fill="white"/>
</svg>
