<svg width="413" height="147" viewBox="0 0 413 147" fill="none" xmlns="http://www.w3.org/2000/svg">
<path d="M162.894 102.914C160.837 102.914 159.809 102.33 159.809 101.162V52.0693C159.809 50.9014 160.837 50.3174 162.894 50.3174H186.469C190.48 50.3174 194.149 51.5742 197.476 54.0879C200.827 56.5762 202.503 59.9658 202.503 64.2568C202.503 67.9639 201.17 71.0615 198.504 73.5498C195.838 76.0127 192.766 77.498 189.287 78.0059C190.811 79.2754 192.055 80.8115 193.02 82.6143C194.01 84.417 194.937 86.3086 195.8 88.2891C196.841 90.5996 197.983 92.8467 199.228 95.0303C200.472 97.1885 202.135 98.8008 204.217 99.8672C204.902 100.223 205.245 100.654 205.245 101.162C205.245 101.594 204.979 101.975 204.445 102.305C203.836 102.686 203.074 102.876 202.16 102.876C201.322 102.876 200.637 102.736 200.104 102.457C197.285 101.035 195.152 99.1055 193.705 96.668C192.258 94.2051 190.95 91.6787 189.782 89.0889C188.563 86.3467 187.243 83.8457 185.821 81.5859C184.399 79.3262 182.355 78.1963 179.689 78.1963H166.017V101.162C166.017 102.33 164.976 102.914 162.894 102.914ZM186.469 74.7305C193.02 74.7305 196.295 71.2393 196.295 64.2568C196.295 57.2744 193.02 53.7832 186.469 53.7832H166.017V74.7305H186.469ZM247.025 51.1553C247.025 49.9873 248.066 49.4033 250.148 49.4033C252.205 49.4033 253.233 49.9873 253.233 51.1553V85.6611C253.233 91.1201 250.923 95.3604 246.302 98.3818C241.706 101.403 236.945 102.914 232.02 102.914C227.145 102.914 222.422 101.391 217.852 98.3438C213.281 95.2969 210.996 91.0693 210.996 85.6611V51.1553C210.996 49.9873 212.024 49.4033 214.081 49.4033C216.163 49.4033 217.204 49.9873 217.204 51.1553V85.6611C217.204 89.5713 218.74 92.8467 221.812 95.4873C224.885 98.1279 228.287 99.4482 232.02 99.4482C235.803 99.4736 239.243 98.166 242.341 95.5254C245.464 92.8848 247.025 89.5967 247.025 85.6611V51.1553ZM301.146 102.914C299.444 102.914 298.289 102.508 297.68 101.695L265.383 57.6299V101.733C265.383 102.521 264.634 102.914 263.136 102.914C261.638 102.914 260.889 102.521 260.889 101.733V51.5361C260.889 50.1143 262.158 49.4033 264.697 49.4033C266.424 49.4033 267.592 49.8096 268.201 50.6221L300.498 94.6875V50.6221C300.498 49.8096 301.247 49.4033 302.745 49.4033C304.243 49.4033 304.992 49.8096 304.992 50.6221V100.857C304.992 102.229 303.71 102.914 301.146 102.914ZM360.141 101.238C360.141 102.355 358.973 102.914 356.637 102.914C354.834 102.914 353.742 102.47 353.361 101.581L346.239 85.2041H321.369L314.209 102.038C313.93 102.622 313.219 102.914 312.076 102.914C310.527 102.914 309.753 102.533 309.753 101.771C309.753 101.746 309.778 101.632 309.829 101.429L331.424 50.6602C331.754 49.8223 332.947 49.4033 335.004 49.4033C336.781 49.4033 337.873 49.8477 338.279 50.7363L359.912 100.553C360.064 100.908 360.141 101.137 360.141 101.238ZM344.754 81.7383L333.671 56.2207L322.816 81.7383H344.754ZM368.024 102.914C365.968 102.914 364.939 102.33 364.939 101.162V52.0693C364.939 50.9014 365.968 50.3174 368.024 50.3174H391.6C395.611 50.3174 399.28 51.5742 402.606 54.0879C405.958 56.5762 407.634 59.9658 407.634 64.2568C407.634 67.9639 406.301 71.0615 403.635 73.5498C400.969 76.0127 397.896 77.498 394.418 78.0059C395.941 79.2754 397.186 80.8115 398.15 82.6143C399.141 84.417 400.067 86.3086 400.931 88.2891C401.972 90.5996 403.114 92.8467 404.358 95.0303C405.603 97.1885 407.266 98.8008 409.348 99.8672C410.033 100.223 410.376 100.654 410.376 101.162C410.376 101.594 410.109 101.975 409.576 102.305C408.967 102.686 408.205 102.876 407.291 102.876C406.453 102.876 405.768 102.736 405.234 102.457C402.416 101.035 400.283 99.1055 398.836 96.668C397.389 94.2051 396.081 91.6787 394.913 89.0889C393.694 86.3467 392.374 83.8457 390.952 81.5859C389.53 79.3262 387.486 78.1963 384.82 78.1963H371.147V101.162C371.147 102.33 370.106 102.914 368.024 102.914ZM391.6 74.7305C398.15 74.7305 401.426 71.2393 401.426 64.2568C401.426 57.2744 398.15 53.7832 391.6 53.7832H371.147V74.7305H391.6Z" fill="white"/>
<path fill-rule="evenodd" clip-rule="evenodd" d="M73.5 147C114.093 147 147 114.093 147 73.5C147 32.9071 114.093 0 73.5 0C32.9071 0 0 32.9071 0 73.5C0 114.093 32.9071 147 73.5 147ZM81.5 139C117.675 139 147 109.675 147 73.5C147 37.3253 117.675 8 81.5 8C45.3253 8 16 37.3253 16 73.5C16 109.675 45.3253 139 81.5 139Z" fill="white"/>
<path fill-rule="evenodd" clip-rule="evenodd" d="M83.5 133C50.6391 133 24 106.361 24 73.5C24 40.6391 50.6391 14 83.5 14C116.361 14 143 40.6391 143 73.5C143 106.361 116.361 133 83.5 133ZM77.0238 126.524C47.7396 126.524 24 102.784 24 73.5C24 44.2158 47.7396 20.4762 77.0238 20.4762C106.308 20.4762 130.048 44.2158 130.048 73.5C130.048 102.784 106.308 126.524 77.0238 126.524Z" fill="white"/>
<path d="M56.8379 111.172C54.2012 111.172 52.8828 110.423 52.8828 108.926V45.9863C52.8828 44.4889 54.2012 43.7402 56.8379 43.7402H87.0625C92.2057 43.7402 96.9095 45.3516 101.174 48.5742C105.471 51.7643 107.619 56.11 107.619 61.6113C107.619 66.3639 105.91 70.3353 102.492 73.5254C99.0742 76.6829 95.1354 78.5872 90.6758 79.2383C92.6289 80.8659 94.224 82.8353 95.4609 85.1465C96.7305 87.4577 97.9186 89.8828 99.0254 92.4219C100.36 95.3841 101.825 98.265 103.42 101.064C105.015 103.831 107.147 105.898 109.816 107.266C110.695 107.721 111.135 108.275 111.135 108.926C111.135 109.479 110.793 109.967 110.109 110.391C109.328 110.879 108.352 111.123 107.18 111.123C106.105 111.123 105.227 110.944 104.543 110.586C100.93 108.763 98.1953 106.289 96.3398 103.164C94.4844 100.007 92.8079 96.7676 91.3105 93.4473C89.748 89.9316 88.0553 86.7253 86.2324 83.8281C84.4095 80.931 81.7891 79.4824 78.3711 79.4824H60.8418V108.926C60.8418 110.423 59.5072 111.172 56.8379 111.172ZM87.0625 75.0391C95.4609 75.0391 99.6602 70.5632 99.6602 61.6113C99.6602 52.6595 95.4609 48.1836 87.0625 48.1836H60.8418V75.0391H87.0625Z" fill="white"/>
</svg>
